<svg xmlns="http://www.w3.org/2000/svg" xmlns:xlink="http://www.w3.org/1999/xlink" width="500" zoomAndPan="magnify" viewBox="0 0 375 374.999991" height="500" preserveAspectRatio="xMidYMid meet" version="1.0"><defs><g/><clipPath id="7227344fb0"><path d="M 95 39 L 280 39 L 280 305.25 L 95 305.25 Z M 95 39 " clip-rule="nonzero"/></clipPath></defs><path fill="#ed1c24" d="M 161.210938 159.652344 L 164.121094 156.742188 L 193.0625 185.679688 L 196.945312 181.800781 L 168.003906 152.863281 L 170.914062 149.953125 L 199.855469 178.890625 L 203.734375 175.011719 L 174.792969 146.074219 L 177.703125 143.164062 L 206.648438 172.101562 L 210.527344 168.222656 L 183.203125 140.898438 C 180.320312 138.019531 176.667969 136.378906 172.910156 135.976562 C 162.335938 134.84375 152.613281 129.644531 145.554688 121.6875 L 105.847656 76.941406 C 102.90625 73.628906 97.78125 73.476562 94.648438 76.605469 C 91.515625 79.742188 91.667969 84.867188 94.980469 87.804688 L 139.734375 127.507812 C 147.691406 134.566406 152.894531 144.285156 154.023438 154.863281 C 154.425781 158.617188 156.066406 162.269531 158.949219 165.148438 L 186.273438 192.472656 L 190.152344 188.589844 L 161.210938 159.652344 " fill-opacity="1" fill-rule="nonzero"/><g clip-path="url(#7227344fb0)"><path fill="#4f4c4c" d="M 251.933594 65.546875 L 251.101562 66.152344 C 246.953125 69.167969 244.464844 73.976562 244.445312 79.023438 C 244.4375 80.34375 244.363281 81.765625 244.207031 83.273438 C 254.816406 96.035156 261.199219 112.4375 261.199219 130.332031 C 261.199219 171.023438 228.210938 204.007812 187.515625 204.007812 C 146.820312 204.007812 113.832031 171.023438 113.832031 130.332031 C 113.832031 125.644531 114.273438 121.054688 115.113281 116.609375 L 99.839844 103.0625 C 96.960938 111.976562 95.402344 121.492188 95.402344 131.367188 C 95.402344 209.957031 187.515625 305.210938 187.515625 305.210938 C 187.515625 305.210938 279.628906 209.957031 279.628906 131.367188 C 279.628906 105.578125 269.019531 82.265625 251.933594 65.546875 Z M 187.515625 56.660156 C 198.511719 56.660156 208.945312 59.074219 218.316406 63.390625 L 231.359375 50.351562 C 218.324219 43.28125 203.386719 39.265625 187.515625 39.265625 C 157.988281 39.265625 131.710938 53.160156 114.855469 74.757812 L 126.941406 88.378906 C 140.246094 69.210938 162.414062 56.660156 187.515625 56.660156 " fill-opacity="1" fill-rule="nonzero"/></g><path fill="#ed1c24" d="M 269.183594 24.113281 L 171.546875 121.71875 C 171.546875 121.71875 191.667969 141.835938 217.671875 115.835938 C 232.839844 100.671875 236.21875 87.574219 236.257812 78.988281 C 236.289062 71.28125 240.050781 64.066406 246.285156 59.53125 L 280.046875 34.976562 C 283.363281 32.039062 283.515625 26.914062 280.382812 23.78125 C 277.246094 20.648438 272.125 20.800781 269.183594 24.113281 " fill-opacity="1" fill-rule="nonzero"/><path fill="#40b93c" d="M 158.246094 96.566406 C 155.679688 104.089844 155.417969 112.265625 155.773438 118.460938 C 171.210938 115.972656 169.457031 100.933594 167.484375 91.929688 C 166.242188 86.269531 168.421875 81.519531 168.421875 81.519531 C 168.421875 81.519531 126.652344 98.1875 151.609375 117.585938 C 152.910156 106.753906 158.246094 96.566406 158.246094 96.566406 " fill-opacity="1" fill-rule="nonzero"/><path fill="#40b93c" d="M 233.964844 18.019531 C 236.15625 26.773438 235.683594 36.039062 234.691406 43.019531 C 217.464844 38.746094 220.867188 21.898438 223.953125 11.898438 C 225.890625 5.613281 223.875 0.0351562 223.875 0.0351562 C 223.875 0.0351562 269.550781 22.835938 239.484375 42.421875 C 239.035156 30.042969 233.964844 18.019531 233.964844 18.019531 " fill-opacity="1" fill-rule="nonzero"/><g fill="#40b93c" fill-opacity="1"><g transform="translate(61.03381, 355.548668)"><g><path d="M 14.429688 -5.464844 L 11.242188 -5.464844 L 11.242188 -8.828125 L 17.582031 -8.828125 L 17.582031 -14.464844 L 11.242188 -14.464844 L 11.242188 -18.738281 L 17.828125 -18.738281 L 18.003906 -16.285156 L 23.222656 -16.285156 L 23.222656 -24.515625 L 1.644531 -24.515625 L 1.644531 -19.089844 L 4.34375 -19.089844 L 4.34375 -5.464844 L 1.644531 -5.464844 L 1.644531 0 L 14.429688 0 Z M 14.429688 -5.464844 "/></g></g></g><g fill="#40b93c" fill-opacity="1"><g transform="translate(86.63086, 355.548668)"><g><path d="M 28.195312 -12.257812 C 28.195312 -20.382812 22.660156 -24.867188 14.605469 -24.867188 C 6.585938 -24.867188 0.980469 -20.28125 0.980469 -12.257812 C 0.980469 -4.027344 6.585938 0.351562 14.605469 0.351562 C 22.660156 0.351562 28.195312 -4.027344 28.195312 -12.257812 Z M 21.261719 -12.257812 C 21.261719 -8.160156 18.667969 -5.570312 14.605469 -5.570312 C 10.683594 -5.570312 7.914062 -8.160156 7.914062 -12.257812 C 7.914062 -16.285156 10.648438 -18.949219 14.605469 -18.949219 C 18.667969 -18.949219 21.261719 -16.496094 21.261719 -12.257812 Z M 21.261719 -12.257812 "/></g></g></g><g fill="#40b93c" fill-opacity="1"><g transform="translate(117.585312, 355.548668)"><g><path d="M 28.195312 -12.257812 C 28.195312 -20.382812 22.660156 -24.867188 14.605469 -24.867188 C 6.585938 -24.867188 0.980469 -20.28125 0.980469 -12.257812 C 0.980469 -4.027344 6.585938 0.351562 14.605469 0.351562 C 22.660156 0.351562 28.195312 -4.027344 28.195312 -12.257812 Z M 21.261719 -12.257812 C 21.261719 -8.160156 18.667969 -5.570312 14.605469 -5.570312 C 10.683594 -5.570312 7.914062 -8.160156 7.914062 -12.257812 C 7.914062 -16.285156 10.648438 -18.949219 14.605469 -18.949219 C 18.667969 -18.949219 21.261719 -16.496094 21.261719 -12.257812 Z M 21.261719 -12.257812 "/></g></g></g><g fill="#40b93c" fill-opacity="1"><g transform="translate(148.539765, 355.548668)"><g><path d="M 1.714844 -19.089844 L 4.378906 -19.089844 L 4.378906 -5.464844 L 1.714844 -5.464844 L 1.714844 0 L 14.886719 0 C 23.675781 0 27.773438 -5.710938 27.773438 -12.503906 C 27.773438 -19.230469 23.535156 -24.515625 14.886719 -24.515625 L 1.714844 -24.515625 Z M 11.277344 -5.847656 L 11.277344 -18.773438 L 14.886719 -18.773438 C 19.125 -18.773438 20.910156 -15.902344 20.910156 -12.574219 C 20.910156 -9.210938 19.332031 -5.847656 14.886719 -5.847656 Z M 11.277344 -5.847656 "/></g></g></g><g fill="#40b93c" fill-opacity="1"><g transform="translate(179.144063, 355.548668)"><g><path d="M 15.796875 -24.515625 L 1.472656 -24.515625 L 1.472656 -19.019531 L 4.378906 -19.019531 L 4.378906 -5.464844 L 1.472656 -5.464844 L 1.472656 0 L 14.464844 0 L 14.464844 -5.289062 L 11.347656 -5.464844 L 11.347656 -7.949219 L 15.796875 -7.949219 C 20.769531 -7.984375 25.601562 -10.472656 25.601562 -16.214844 C 25.601562 -21.996094 21.503906 -24.515625 15.796875 -24.515625 Z M 11.347656 -13.589844 L 11.347656 -18.527344 L 15.796875 -18.527344 C 17.371094 -18.527344 18.667969 -17.757812 18.667969 -16.148438 C 18.667969 -14.394531 17.371094 -13.589844 15.796875 -13.589844 Z M 11.347656 -13.589844 "/></g></g></g><g fill="#40b93c" fill-opacity="1"><g transform="translate(207.05215, 355.548668)"><g><path d="M 28.195312 -12.257812 C 28.195312 -20.382812 22.660156 -24.867188 14.605469 -24.867188 C 6.585938 -24.867188 0.980469 -20.28125 0.980469 -12.257812 C 0.980469 -4.027344 6.585938 0.351562 14.605469 0.351562 C 22.660156 0.351562 28.195312 -4.027344 28.195312 -12.257812 Z M 21.261719 -12.257812 C 21.261719 -8.160156 18.667969 -5.570312 14.605469 -5.570312 C 10.683594 -5.570312 7.914062 -8.160156 7.914062 -12.257812 C 7.914062 -16.285156 10.648438 -18.949219 14.605469 -18.949219 C 18.667969 -18.949219 21.261719 -16.496094 21.261719 -12.257812 Z M 21.261719 -12.257812 "/></g></g></g><g fill="#40b93c" fill-opacity="1"><g transform="translate(238.006608, 355.548668)"><g><path d="M 1.574219 -19.089844 L 4.449219 -19.089844 L 4.449219 -5.464844 L 1.574219 -5.464844 L 1.574219 0 L 14.324219 0 L 14.324219 -5.464844 L 11.417969 -5.464844 L 11.417969 -19.089844 L 14.324219 -19.089844 L 14.324219 -24.515625 L 1.574219 -24.515625 Z M 1.574219 -19.089844 "/></g></g></g><g fill="#40b93c" fill-opacity="1"><g transform="translate(255.585052, 355.548668)"><g><path d="M 20.628906 -11.101562 L 10.261719 -24.515625 L 1.472656 -24.515625 L 1.472656 -19.019531 L 4.378906 -19.019531 L 4.378906 -5.464844 L 1.472656 -5.464844 L 1.472656 0 L 13.800781 0 L 13.800781 -5.464844 L 11.417969 -5.464844 L 11.417969 -7.878906 L 11.3125 -13.203125 L 21.503906 0 L 27.425781 0 L 27.425781 -19.019531 L 30.261719 -19.019531 L 30.261719 -24.515625 L 18.039062 -24.515625 L 18.039062 -19.019531 L 20.417969 -19.019531 L 20.417969 -16.113281 C 20.488281 -15.164062 20.488281 -14.046875 20.628906 -11.101562 Z M 20.628906 -11.101562 "/></g></g></g><g fill="#40b93c" fill-opacity="1"><g transform="translate(288.780515, 355.548668)"><g><path d="M 24.378906 -24.515625 L 0.804688 -24.515625 L 0.804688 -15.027344 L 6.65625 -15.027344 L 6.863281 -18.632812 L 9.105469 -18.632812 L 9.105469 -5.464844 L 6.199219 -5.464844 L 6.199219 0 L 18.984375 0 L 18.984375 -5.464844 L 16.113281 -5.464844 L 16.113281 -18.632812 L 18.316406 -18.632812 L 18.527344 -15.027344 L 24.378906 -15.027344 Z M 24.378906 -24.515625 "/></g></g></g></svg>