<?xml version="1.0" encoding="utf-8"?>

<!DOCTYPE svg PUBLIC "-//W3C//DTD SVG 1.1//EN" "http://www.w3.org/Graphics/SVG/1.1/DTD/svg11.dtd">
<!-- Uploaded to: SVG Repo, www.svgrepo.com, Generator: SVG Repo Mixer Tools -->
<svg version="1.1" id="OFFER" xmlns="http://www.w3.org/2000/svg" xmlns:xlink="http://www.w3.org/1999/xlink" 
	 width="800px" height="800px" viewBox="0 0 1800 1800" enable-background="new 0 0 1800 1800" xml:space="preserve">
<g>
	<path fill="#333333" d="M1799.344,899.996c0-88.462-95.547-165.006-276.3-221.355c-16.881-5.265-34.349-10.276-52.301-15.054
		c9.318-16.072,18.118-31.96,26.339-47.619c87.966-167.659,101.403-289.341,38.854-351.9c-25.566-25.557-61.558-38.52-106.981-38.52
		c-75.811,0-177.951,37.532-292.485,103.924c-4.795-18.03-9.827-35.569-15.106-52.516C1065.015,96.198,988.466,0.657,900.001,0.657
		c-88.462,0-165.011,95.541-221.36,276.299c-5.283,16.946-10.315,34.485-15.11,52.516
		c-114.534-66.392-216.675-103.924-292.49-103.924c-45.424,0-81.41,12.958-106.972,38.52c-62.554,62.554-49.121,184.241,38.85,351.9
		c8.216,15.659,17.021,31.547,26.334,47.619c-17.951,4.778-35.416,9.789-52.296,15.054C96.204,734.99,0.658,811.534,0.658,899.996
		c0,88.469,95.546,165.01,276.299,221.366c16.88,5.262,34.345,10.268,52.296,15.055c-9.313,16.071-18.118,31.959-26.334,47.618
		c-87.971,167.659-101.404,289.342-38.85,351.892c25.562,25.565,61.552,38.528,106.972,38.528
		c75.815,0,177.957-37.536,292.49-103.924c4.799,18.022,9.827,35.561,15.11,52.512c56.349,180.753,132.893,276.3,221.36,276.3
		c88.464,0,165.013-95.547,221.362-276.3c5.279-16.951,10.312-34.481,15.106-52.512c114.534,66.388,216.666,103.915,292.485,103.915
		c45.424,0,81.415-12.963,106.973-38.52c62.558-62.55,49.12-184.232-38.846-351.892c-8.221-15.659-17.021-31.547-26.339-47.618
		c17.952-4.787,35.42-9.793,52.301-15.055C1703.797,1065.006,1799.344,988.465,1799.344,899.996z M1481.194,1068.176
		c-14.5,4.198-29.396,8.229-44.659,12.076c-9.125,2.301-18.355,4.549-27.736,6.718c-12.313,2.854-24.854,5.587-37.589,8.212
		c7.123,10.83,14.043,21.605,20.719,32.303c5.12,8.194,10.073,16.345,14.912,24.45c8.046,13.455,15.686,26.77,22.949,39.935
		c3.952,7.175,7.825,14.325,11.549,21.411c70.717,134.796,89.442,238.764,50.078,278.128c-13.322,13.331-34.34,20.085-62.462,20.085
		c-60.529,0-143.164-29.456-237.269-81.607c-13.052-7.229-26.313-14.896-39.769-22.976c-8.071-4.848-16.213-9.854-24.415-14.991
		c-10.662-6.692-21.438-13.622-32.302-20.806c-2.635,12.769-5.376,25.346-8.23,37.685c-2.15,9.301-4.382,18.444-6.666,27.499
		c-3.864,15.343-7.912,30.317-12.128,44.896c-2.267,7.808-4.559,15.536-6.921,23.107
		c-45.301,145.325-105.584,232.088-161.254,232.088c-55.673,0-115.957-86.763-161.256-232.088c-2.362-7.571-4.655-15.3-6.917-23.107
		c-4.22-14.579-8.269-29.554-12.137-44.905c-2.279-9.046-4.506-18.189-6.661-27.49c-2.854-12.339-5.595-24.916-8.229-37.685
		c-10.869,7.175-21.641,14.113-32.311,20.806c-8.199,5.137-16.336,10.144-24.407,14.991c-13.455,8.08-26.721,15.747-39.767,22.976
		c-94.105,52.151-176.745,81.617-237.274,81.617c-28.118,0-49.13-6.764-62.453-20.087c-39.368-39.363-20.648-143.34,50.078-278.136
		c3.715-7.086,7.593-14.236,11.549-21.411c7.254-13.165,14.904-26.479,22.94-39.935c4.843-8.105,9.797-16.256,14.912-24.45
		c6.675-10.697,13.596-21.473,20.723-32.303c-12.735-2.625-25.276-5.357-37.59-8.212c-9.384-2.169-18.61-4.417-27.735-6.718
		c-15.269-3.847-30.16-7.878-44.659-12.076c-7.808-2.267-15.537-4.559-23.111-6.921C150.37,1015.954,63.611,955.671,63.611,899.996
		c0-55.673,86.758-115.952,232.084-161.257c7.575-2.362,15.304-4.655,23.111-6.916c14.504-4.203,29.39-8.225,44.659-12.076
		c9.121-2.297,18.351-4.545,27.735-6.719c12.313-2.851,24.855-5.582,37.585-8.212c-7.127-10.833-14.043-21.601-20.719-32.297
		c-5.115-8.199-10.069-16.345-14.917-24.451c-8.036-13.455-15.682-26.77-22.94-39.935c-3.952-7.18-7.834-14.329-11.549-21.412
		c-70.722-134.795-89.446-238.772-50.074-278.144c13.323-13.323,34.335-20.077,62.453-20.077c60.529,0,143.165,29.457,237.27,81.612
		c13.046,7.228,26.313,14.899,39.771,22.979c8.071,4.848,16.205,9.845,24.407,14.992c10.666,6.692,21.438,13.622,32.311,20.806
		c2.635-12.769,5.375-25.346,8.229-37.694c2.155-9.297,4.382-18.443,6.661-27.485c3.869-15.352,7.913-30.326,12.137-44.905
		c2.262-7.808,4.555-15.541,6.917-23.111C784.045,150.369,844.329,63.61,900.001,63.61c55.67,0,115.954,86.758,161.254,232.084
		c2.362,7.57,4.654,15.308,6.921,23.115c4.225,14.579,8.264,29.545,12.138,44.897c2.274,9.046,4.506,18.197,6.656,27.493
		c2.854,12.344,5.596,24.921,8.23,37.686c10.873-7.179,21.64-14.109,32.311-20.801c8.203-5.146,16.335-10.144,24.406-14.992
		c13.455-8.08,26.727-15.751,39.769-22.979c94.104-52.151,176.739-81.612,237.269-81.612c28.122,0,49.14,6.758,62.462,20.086
		c39.364,39.363,20.639,143.34-50.078,278.135c-3.724,7.079-7.597,14.228-11.549,21.408c-7.264,13.165-14.903,26.483-22.949,39.938
		c-4.839,8.106-9.792,16.248-14.912,24.451c-6.676,10.693-13.587,21.465-20.719,32.297c12.735,2.63,25.276,5.362,37.589,8.212
		c9.381,2.173,18.611,4.421,27.736,6.719c15.264,3.851,30.159,7.877,44.659,12.076c7.808,2.261,15.536,4.554,23.107,6.916
		c145.325,45.305,232.088,105.584,232.088,161.257c0,55.675-86.763,115.958-232.088,161.259
		C1496.73,1063.617,1489.002,1065.909,1481.194,1068.176z"/>
	<path fill="#333333" d="M704.532,852.061c82.828,0,150.217-67.388,150.217-150.217c0-82.828-67.389-150.217-150.221-150.217
		c-82.828,0-150.217,67.384-150.217,150.212C554.311,784.672,621.7,852.061,704.532,852.061z M704.528,614.58
		c48.12,0,87.268,39.148,87.268,87.264s-39.148,87.264-87.264,87.264c-48.12,0-87.268-39.148-87.268-87.268
		C617.264,653.725,656.413,614.58,704.528,614.58z"/>
	<path fill="#333333" d="M1101.972,949.058c-82.837,0-150.226,67.389-150.226,150.227c0,82.828,67.389,150.207,150.226,150.207
		c82.829,0,150.208-67.379,150.208-150.207C1252.18,1016.446,1184.801,949.058,1101.972,949.058z M1101.972,1186.538
		c-48.119,0-87.271-39.144-87.271-87.254c0-48.129,39.152-87.273,87.271-87.273c48.11,0,87.255,39.145,87.255,87.273
		C1189.227,1147.395,1150.082,1186.538,1101.972,1186.538z"/>
	<path fill="#333333" d="M1198.448,561.357l-634.397,634.403c-12.291,12.295-12.291,32.223,0,44.519
		c6.147,6.138,14.206,9.212,22.26,9.212c8.053,0,16.111-3.074,22.259-9.212l634.397-634.402c12.287-12.295,12.287-32.224,0-44.52
		C1230.672,549.071,1210.744,549.071,1198.448,561.357z"/>
</g>
</svg>