<?xml version="1.0" standalone="no"?>
<!DOCTYPE svg PUBLIC "-//W3C//DTD SVG 20010904//EN"
 "http://www.w3.org/TR/2001/REC-SVG-20010904/DTD/svg10.dtd">
<svg version="1.0" xmlns="http://www.w3.org/2000/svg"
 width="700.000000pt" height="700.000000pt" viewBox="0 0 700.000000 700.000000"
 preserveAspectRatio="xMidYMid meet">
<metadata>
Created by potrace 1.14, written by Peter Selinger 2001-2017
</metadata>
<g transform="translate(0.000000,700.000000) scale(0.100000,-0.100000)"
fill="#000000" stroke="none">
<path d="M4337 6976 c15 -59 11 -187 -8 -253 -10 -37 -21 -78 -23 -91 -3 -12
-7 -30 -10 -40 -21 -74 -26 -252 -8 -317 31 -109 119 -202 231 -242 l60 -22 7
67 c14 127 10 312 -10 442 -4 27 -1 22 15 -20 29 -81 76 -276 84 -356 4 -38 9
-76 11 -84 1 -8 3 -18 3 -22 2 -14 99 62 138 106 192 218 79 482 -323 752 -33
22 -67 44 -75 47 -8 4 -33 18 -56 31 -41 23 -41 23 -36 2z"/>
<path d="M5427 6490 c-19 -10 -518 -502 -1165 -1150 l-1131 -1133 43 -33 c24
-18 76 -49 116 -68 284 -138 599 -56 890 233 106 105 177 190 246 296 125 193
174 338 189 565 7 105 27 177 70 255 46 81 102 139 215 222 378 276 494 361
519 378 111 78 189 137 209 158 58 62 61 161 6 227 -52 61 -139 83 -207 50z"/>
<path d="M3240 6084 c-472 -62 -893 -267 -1226 -599 -105 -105 -174 -184 -174
-200 0 -6 90 -112 145 -171 6 -6 35 -39 65 -73 29 -34 57 -60 61 -59 3 2 34
38 68 81 266 335 686 574 1099 624 85 10 371 10 437 0 28 -5 66 -10 85 -13 76
-11 242 -61 338 -101 l63 -27 150 150 150 150 -73 36 c-66 32 -114 54 -173 78
-100 41 -338 103 -448 116 -29 4 -56 9 -61 12 -20 12 -406 9 -506 -4z"/>
<path d="M4919 5453 c-74 -67 -115 -163 -118 -278 -1 -33 -4 -61 -6 -64 -6 -6
11 -34 65 -109 27 -37 53 -72 57 -78 10 -12 36 -59 79 -139 76 -143 150 -371
169 -522 26 -211 23 -390 -9 -558 -13 -71 -19 -94 -43 -175 -132 -444 -435
-809 -845 -1018 -174 -90 -316 -137 -504 -168 -213 -35 -532 -19 -709 36 -108
34 -137 44 -214 76 -250 103 -492 287 -659 499 -34 44 -66 85 -71 90 -24 31
-98 162 -136 240 -111 231 -164 469 -162 734 0 74 4 157 9 185 18 116 18 123
-5 143 -12 10 -89 78 -171 151 -82 73 -152 132 -155 132 -13 0 -71 -250 -88
-380 -16 -129 -9 -529 12 -630 3 -14 7 -41 10 -60 19 -168 150 -623 234 -815
5 -11 33 -76 62 -145 141 -334 364 -738 621 -1129 48 -73 88 -137 88 -141 0
-5 4 -10 8 -12 4 -1 39 -48 77 -103 171 -247 599 -797 709 -911 6 -6 36 -39
66 -74 30 -35 80 -90 110 -123 30 -32 64 -70 75 -83 l21 -24 81 87 c44 49 95
106 114 128 19 22 37 42 40 45 19 16 220 260 413 501 213 266 529 726 741
1081 308 515 579 1165 660 1583 56 289 73 538 51 758 -8 87 -13 118 -33 227
-41 228 -165 527 -307 738 -100 150 -261 342 -285 342 -6 0 -29 -16 -52 -37z"/>
<path d="M1453 5290 c-70 -15 -133 -95 -133 -168 0 -62 29 -111 112 -183 40
-35 93 -82 118 -105 25 -23 191 -171 370 -329 350 -310 459 -407 525 -470 99
-93 198 -255 243 -395 24 -74 30 -105 46 -210 7 -44 28 -106 52 -147 11 -18
169 -182 352 -365 l332 -333 44 45 45 45 -332 332 -332 333 33 32 32 33 328
-328 c180 -180 332 -327 337 -327 6 0 28 18 50 41 l38 41 -332 332 -331 332
33 32 33 33 333 -333 332 -332 43 44 44 45 -331 332 -331 332 29 31 c16 16 32
30 36 30 4 0 154 -146 332 -325 178 -179 327 -325 331 -325 12 0 87 73 84 82
-7 20 -648 654 -688 680 -46 29 -117 54 -180 62 -152 20 -284 69 -421 157 -58
38 -188 160 -265 249 -29 34 -178 203 -199 226 -5 6 -39 44 -75 85 -36 40 -72
81 -80 89 -8 9 -44 50 -80 91 -36 41 -69 79 -75 85 -15 16 -137 154 -158 178
-125 145 -195 217 -221 230 -40 19 -83 24 -123 16z"/>
<path d="M2949 5077 c-401 -203 -549 -449 -392 -655 28 -37 104 -112 113 -112
3 0 12 33 19 73 7 39 26 113 42 164 43 134 102 257 69 144 -17 -62 -30 -184
-31 -294 0 -60 2 -111 4 -113 9 -9 138 44 172 71 43 32 83 93 103 155 23 75
19 275 -8 371 -12 39 -6 185 9 222 6 15 9 27 7 27 -1 0 -50 -24 -107 -53z"/>
</g>
</svg>
